# xmcd
#
# Track frame offsets:
#	150
#	15834
#	29108
#	41028
#	56666
#	75237
#	91194
#	108490
#	125594
#	141803
#	157567
#	172615
#	188670
#
# Disc length: 2744 seconds
#
# Revision: 2
# Processed by: cddbd v1.5.2PL0 Copyright (c) Steve Scherf et al.
# Submitted via: EZCDAudioConverter 6.0.8.1
#
DISCID=900ab60d
DTITLE=Jon Wolfe - Natural Man
DYEAR=2015
DGENRE=Country
TTITLE0=If You're Lonely Too
TTITLE1=That's What I'm Talkin' About
TTITLE2=Smile On Mine
TTITLE3=It Just Feels Right
TTITLE4=Outrun Her Memory
TTITLE5=Don't It Feel Good
TTITLE6=She Beats All I've Ever Seen
TTITLE7=Singin' Thing
TTITLE8=Natural Man
TTITLE9=What Are You Doin' Right Now
TTITLE10=I'm Doin' Alright
TTITLE11=Married to Nothin'
TTITLE12=When I Get to Heaven
EXTD=
EXTT0=
EXTT1=
EXTT2=
EXTT3=
EXTT4=
EXTT5=
EXTT6=
EXTT7=
EXTT8=
EXTT9=
EXTT10=
EXTT11=
EXTT12=
PLAYORDER=
